<?xml version="1.0" standalone="no"?><!DOCTYPE svg PUBLIC "-//W3C//DTD SVG 1.1//EN"
  "http://www.w3.org/Graphics/SVG/1.1/DTD/svg11.dtd">
<svg viewBox="0 0 1024 1024" version="1.1" xmlns="http://www.w3.org/2000/svg"
     width="80" height="80" opacity="0.3">
  <path
    d="M921.49 125H103.17c-21.42 0-39.32 14.6-39.32 33.33v575.83c0 18.73 18 34.45 39.32 34.45h302.06l-4.55 60.95s2.38 11.18-14.59 26.49-30.43 29.5-30.43 29.5a18.56 18.56 0 0 0-2 8.27c0 4.87 2.79 5.08 14.59 5.08h288c11.79 0 14.58-0.31 14.58-5.18a18 18 0 0 0-2-8.27s-13.45-14.18-30.42-29.61-14.6-26.38-14.6-26.38l-4.55-61h302.13c21.32 0 38.5-15.73 38.5-34.46V158.29c0.1-18.73-17.08-33.33-38.4-33.33zM491.12 714.7a20.91 20.91 0 1 1 20.9 21 20.93 20.93 0 0 1-20.9-21zM930 673.41H93.86V153.94H930z m0 0"
    fill="#ffffff"></path>
  <path
    d="M563.66 286.09c19.14-20.6 17.39-51 17.39-51s-32.6 2.79-51.75 23.39-17.38 51-17.38 51 32.59-2.79 51.74-23.38z m0 0M458.32 555.24c19.35 0 42.22-13.66 60.43-13.66s35.18 13.66 54 13.66S610.85 541 625 521.3s27-50.3 27-50.3 0.1-0.83 0.21-2c-27.63-10-47.19-35-47.19-64.16 0-26 15.53-48.63 38.29-60.33-15.94-21.32-44.08-33.11-63.54-33.11-23.49 0-55.77 15.31-65.19 15.31-9.93 0-30.84-13.87-58.68-14.18-23-0.31-61.56 12-75.12 48.64s-12.78 89.55 15.45 138.7C419 539.2 439 555.24 458.32 555.24z m0 0"
    fill="#ffffff"></path>
</svg>
